<?xml version="1.0" standalone="no"?>
<svg version="1.0" xmlns="http://www.w3.org/2000/svg"
 width="300.000000pt" height="300.000000pt" viewBox="0 0 300.000000 300.000000"
 preserveAspectRatio="xMidYMid meet">
<g transform="translate(0.000000,300.000000) scale(0.100000,-0.100000)"
fill="#000000" stroke="none">
<path d="M2284 1589 c-35 -18 -44 -53 -44 -174 0 -126 9 -158 50 -175 59 -24
109 12 117 85 6 45 5 45 -25 45 -29 0 -31 -2 -34 -42 -2 -35 -7 -43 -23 -43
-19 0 -20 7 -20 130 0 123 1 130 20 130 16 0 21 -8 23 -37 3 -35 6 -38 34 -38
30 0 31 1 25 41 -3 23 -14 50 -24 60 -23 23 -71 32 -99 18z"/>
<path d="M410 1415 l0 -175 25 0 25 0 1 123 1 122 20 -122 c20 -123 20 -123
48 -123 l28 0 12 115 c18 157 34 161 25 6 l-8 -121 29 0 29 0 3 175 3 175 -39
0 c-24 0 -42 -5 -45 -13 -3 -8 -11 -64 -18 -125 -7 -61 -16 -109 -20 -107 -3
3 -9 30 -13 62 -4 32 -11 86 -17 121 l-11 62 -39 0 -39 0 0 -175z"/>
<path d="M725 1558 c-3 -18 -16 -97 -29 -175 l-22 -143 28 0 c25 0 28 4 28 31
0 29 2 30 38 27 32 -3 37 -7 40 -30 3 -23 8 -28 31 -28 l27 0 -22 143 c-37
229 -29 207 -74 207 -36 0 -40 -2 -45 -32z m59 -128 l12 -80 -29 0 c-27 0 -29
2 -23 33 3 17 8 56 12 85 4 29 9 50 12 48 3 -3 10 -42 16 -86z"/>
<path d="M890 1415 l0 -175 30 0 30 0 0 70 c0 63 2 70 20 70 27 0 40 -29 40
-89 0 -49 1 -51 28 -51 l27 0 -5 68 c-3 38 -11 76 -18 85 -12 14 -11 20 2 39
25 36 21 104 -9 133 -20 21 -34 25 -85 25 l-60 0 0 -175z m108 113 c27 -27 6
-98 -28 -98 -18 0 -20 7 -20 55 0 46 3 55 18 55 10 0 23 -5 30 -12z"/>
<path d="M1100 1415 l0 -175 25 0 c23 0 25 3 25 49 0 99 18 105 49 17 20 -56
26 -64 52 -68 16 -3 29 -2 29 1 0 3 -17 48 -38 99 l-38 94 38 76 c21 42 38 78
38 80 0 1 -12 2 -28 2 -25 0 -31 -7 -56 -67 -42 -98 -48 -99 -44 -10 l3 77
-27 0 -28 0 0 -175z"/>
<path d="M1310 1416 l0 -174 75 -4 75 -3 0 28 c0 26 -2 27 -50 27 l-50 0 0 50
0 50 40 0 c36 0 40 3 40 25 0 23 -4 25 -40 25 l-40 0 0 50 0 50 50 0 c47 0 50
2 50 25 0 24 -2 25 -75 25 l-75 0 0 -174z"/>
<path d="M1480 1565 c0 -21 5 -25 30 -25 l30 0 0 -150 0 -150 25 0 25 0 0 150
0 150 30 0 c25 0 30 4 30 25 0 25 -1 25 -85 25 -84 0 -85 0 -85 -25z"/>
<path d="M1675 1416 l0 -174 28 -5 27 -4 0 69 0 68 34 0 c51 0 76 36 76 112 0
49 -4 63 -25 83 -20 21 -34 25 -82 25 l-58 0 0 -174z m109 108 c3 -9 6 -28 6
-44 0 -44 -10 -60 -36 -60 -23 0 -24 3 -24 60 0 57 1 60 24 60 13 0 27 -7 30
-16z"/>
<path d="M1870 1415 l0 -175 70 0 c68 0 70 1 70 25 0 23 -4 25 -45 25 l-45 0
0 150 0 150 -25 0 -25 0 0 -175z"/>
<path d="M2080 1585 c0 -2 -11 -74 -25 -159 -14 -85 -25 -162 -25 -170 0 -10
9 -16 25 -16 21 0 25 5 25 30 0 28 2 30 40 30 37 0 40 -2 40 -29 0 -24 5 -29
30 -33 17 -3 30 -4 30 -2 0 1 -11 69 -25 151 -14 81 -25 160 -25 176 0 25 -3
27 -45 27 -25 0 -45 -2 -45 -5z m54 -134 c3 -38 9 -76 12 -85 5 -13 -1 -16
-26 -16 -23 0 -31 4 -27 14 3 8 9 46 13 85 3 39 10 71 14 71 4 0 10 -31 14
-69z"/>
<path d="M2440 1415 l0 -175 75 0 c74 0 75 0 75 26 0 24 -2 25 -46 23 l-46 -3
-2 52 -1 52 40 0 c36 0 40 2 40 25 0 23 -4 25 -40 25 l-40 0 0 50 0 50 50 0
c47 0 50 2 50 25 0 25 -1 25 -77 25 l-78 0 0 -175z"/>
</g>
</svg>
