<?xml version="1.0" encoding="iso-8859-1"?>
<!-- Uploaded to: SVG Repo, www.svgrepo.com, Generator: SVG Repo Mixer Tools -->
<svg height="800px" width="800px" version="1.1" id="Layer_1" xmlns="http://www.w3.org/2000/svg" xmlns:xlink="http://www.w3.org/1999/xlink" 
	 viewBox="0 0 503.467 503.467" xml:space="preserve">
<g transform="translate(1 1)">
	<path style="fill:#50DD8E;" d="M464.067,3.267v145.067c0,23.893-18.773,42.667-42.667,42.667s-42.667-18.773-42.667-42.667V3.267
		H464.067z M293.4,3.267v145.067c0,23.893-18.773,42.667-42.667,42.667s-42.667-18.773-42.667-42.667V3.267H293.4z M122.733,3.267
		v145.067c0,23.893-18.773,42.667-42.667,42.667S37.4,172.227,37.4,148.333V3.267H122.733z"/>
	<path style="fill:#ECF4F7;" d="M225.133,429.933h204.8V259.267h-204.8V429.933z M71.533,498.2H191V259.267H71.533V498.2z"/>
	<path style="fill:#FF7474;" d="M498.2,37.4v152.747c-5.973-0.853-11.947-4.267-17.067-7.68c-10.24-7.68-17.067-20.48-17.067-34.133
		V3.267C482.84,3.267,498.2,18.627,498.2,37.4z M37.4,3.267v145.067c0,13.653-6.827,26.453-17.067,34.133
		c-5.12,3.413-11.093,6.827-17.067,7.68V37.4C3.267,18.627,18.627,3.267,37.4,3.267z M378.733,3.267v145.067
		c0,23.893-18.773,42.667-42.667,42.667S293.4,172.227,293.4,148.333V3.267H378.733z M208.067,3.267v145.067
		c0,23.893-18.773,42.667-42.667,42.667c-23.893,0-42.667-18.773-42.667-42.667V3.267H208.067z"/>
	<path style="fill:#FFD0A1;" d="M225.133,429.933h204.8V259.267h-204.8V429.933z M481.133,182.467V498.2H191V259.267H71.533V498.2
		h-51.2V182.467c10.24-7.68,17.067-20.48,17.067-34.133C37.4,172.227,56.173,191,80.067,191s42.667-18.773,42.667-42.667
		c0,23.893,18.773,42.667,42.667,42.667c23.893,0,42.667-18.773,42.667-42.667c0,23.893,18.773,42.667,42.667,42.667
		s42.667-18.773,42.667-42.667c0,23.893,18.773,42.667,42.667,42.667s42.667-18.773,42.667-42.667
		c0,23.893,18.773,42.667,42.667,42.667s42.667-18.773,42.667-42.667C464.067,161.987,470.893,174.787,481.133,182.467
		L481.133,182.467z"/>
</g>
<path style="fill:#51565F;" d="M499.2,503.467H4.267C1.707,503.467,0,501.76,0,499.2c0-2.56,1.707-4.267,4.267-4.267h12.8V221.867
	c0-2.56,1.707-4.267,4.267-4.267s4.267,1.707,4.267,4.267v273.067h452.267V221.867c0-2.56,1.707-4.267,4.267-4.267
	s4.267,1.707,4.267,4.267v273.067h12.8c2.56,0,4.267,1.707,4.267,4.267C503.467,501.76,501.76,503.467,499.2,503.467z M192,469.333
	c-2.56,0-4.267-1.707-4.267-4.267V264.533H76.8v200.533c0,2.56-1.707,4.267-4.267,4.267c-2.56,0-4.267-1.707-4.267-4.267v-204.8
	c0-2.56,1.707-4.267,4.267-4.267H192c2.56,0,4.267,1.707,4.267,4.267v204.8C196.267,467.627,194.56,469.333,192,469.333z
	 M430.933,435.2h-204.8c-2.56,0-4.267-1.707-4.267-4.267V260.267c0-2.56,1.707-4.267,4.267-4.267h204.8
	c2.56,0,4.267,1.707,4.267,4.267v170.667C435.2,433.493,433.493,435.2,430.933,435.2z M230.4,426.667h196.267V264.533H230.4V426.667
	z M157.867,384c-2.56,0-4.267-1.707-4.267-4.267v-17.067c0-2.56,1.707-4.267,4.267-4.267c2.56,0,4.267,1.707,4.267,4.267v17.067
	C162.133,382.293,160.427,384,157.867,384z M379.733,349.867c-0.853,0-2.56,0-3.413-0.853l-34.133-34.133
	c-0.853-0.853-0.853-1.707-0.853-3.413s0-2.56,0.853-3.413c1.707-1.707,4.267-1.707,5.973,0l34.133,34.133
	c0.853,0.853,0.853,1.707,0.853,3.413s0,2.56-0.853,3.413C381.44,349.867,380.587,349.867,379.733,349.867z M396.8,315.733
	c-0.853,0-2.56,0-3.413-0.853l-17.067-17.067c-0.853-0.853-0.853-1.707-0.853-3.413s0-2.56,0.853-3.413
	c1.707-1.707,4.267-1.707,5.973,0l17.067,17.067c0.853,0.853,0.853,1.707,0.853,3.413s0,2.56-0.853,3.413
	C398.507,315.733,397.653,315.733,396.8,315.733z M422.4,196.267c-18.773,0-34.987-11.093-42.667-27.307
	c-7.68,16.213-23.893,27.307-42.667,27.307S302.08,185.173,294.4,168.96c-7.68,16.213-23.893,27.307-42.667,27.307
	s-34.987-11.093-42.667-27.307c-7.68,16.213-23.893,27.307-42.667,27.307c-18.773,0-34.987-11.093-42.667-27.307
	c-7.68,16.213-23.893,27.307-42.667,27.307S46.08,185.173,38.4,168.96C32.427,182.613,20.48,192,5.12,195.413
	c-0.853,0-2.56,0-3.413-0.853S0,192.853,0,191.147V38.4C0,17.067,17.067,0,38.4,0h426.667c21.333,0,38.4,17.067,38.4,38.4v152.747
	c0,0.853-0.853,2.56-1.707,3.413c-0.853,0.853-2.56,0.853-3.413,0.853c-15.36-3.413-27.307-12.8-33.28-26.453
	C457.387,185.173,441.173,196.267,422.4,196.267z M384,149.333c0,21.333,17.067,38.4,38.4,38.4s38.4-17.067,38.4-38.4V38.4
	c0-2.56,1.707-4.267,4.267-4.267s4.267,1.707,4.267,4.267v110.933c0,16.213,10.24,30.72,25.6,35.84V38.4
	c0-16.213-13.653-29.867-29.867-29.867H38.4C22.187,8.533,8.533,22.187,8.533,38.4v146.773c15.36-5.12,25.6-19.627,25.6-35.84V38.4
	c0-2.56,1.707-4.267,4.267-4.267s4.267,1.707,4.267,4.267v110.933c0,21.333,17.067,38.4,38.4,38.4s38.4-17.067,38.4-38.4V38.4
	c0-2.56,1.707-4.267,4.267-4.267c2.56,0,4.267,1.707,4.267,4.267v110.933c0,21.333,17.067,38.4,38.4,38.4s38.4-17.067,38.4-38.4
	V38.4c0-2.56,1.707-4.267,4.267-4.267s4.267,1.707,4.267,4.267v110.933c0,21.333,17.067,38.4,38.4,38.4s38.4-17.067,38.4-38.4V38.4
	c0-2.56,1.707-4.267,4.267-4.267s4.267,1.707,4.267,4.267v110.933c0,21.333,17.067,38.4,38.4,38.4s38.4-17.067,38.4-38.4V38.4
	c0-2.56,1.707-4.267,4.267-4.267c2.56,0,4.267,1.707,4.267,4.267V149.333z"/>
</svg>